<svg xmlns="http://www.w3.org/2000/svg" width="1400" height="420" viewBox="0 0 1400 420" role="img" aria-labelledby="title desc">
  <title id="title">claude-codex-secure-review</title>
  <desc id="desc">Banner for Claude Code and Codex secure source code review skill packages.</desc>
  <defs>
    <linearGradient id="bg" x1="0" x2="1" y1="0" y2="1">
      <stop offset="0%" stop-color="#0f172a"/>
      <stop offset="48%" stop-color="#123c3a"/>
      <stop offset="100%" stop-color="#3b2f1f"/>
    </linearGradient>
    <linearGradient id="line" x1="0" x2="1">
      <stop offset="0%" stop-color="#46d3a9"/>
      <stop offset="100%" stop-color="#f2b66d"/>
    </linearGradient>
  </defs>
  <rect width="1400" height="420" fill="url(#bg)"/>
  <g opacity="0.16" stroke="#ffffff" stroke-width="1">
    <path d="M0 95 H1400"/>
    <path d="M0 175 H1400"/>
    <path d="M0 255 H1400"/>
    <path d="M0 335 H1400"/>
    <path d="M180 0 V420"/>
    <path d="M420 0 V420"/>
    <path d="M660 0 V420"/>
    <path d="M900 0 V420"/>
    <path d="M1140 0 V420"/>
  </g>
  <g transform="translate(92 72)">
    <rect x="0" y="0" width="176" height="176" rx="28" fill="#ffffff" opacity="0.08"/>
    <path d="M88 24 L142 48 V91 C142 126 120 152 88 164 C56 152 34 126 34 91 V48 Z" fill="none" stroke="url(#line)" stroke-width="10" stroke-linejoin="round"/>
    <path d="M62 91 L81 110 L118 70" fill="none" stroke="#ffffff" stroke-width="10" stroke-linecap="round" stroke-linejoin="round"/>
  </g>
  <g transform="translate(320 84)">
    <text x="0" y="0" fill="#f8fafc" font-family="Segoe UI, Inter, Arial, sans-serif" font-size="56" font-weight="750" letter-spacing="0">
      claude-codex-secure-review
    </text>
    <text x="0" y="70" fill="#cbd5e1" font-family="Segoe UI, Inter, Arial, sans-serif" font-size="28" letter-spacing="0">
      Claude Code + Codex packages for evidence-backed AppSec review
    </text>
    <g transform="translate(0 122)" font-family="Segoe UI, Inter, Arial, sans-serif" font-size="20" font-weight="650">
      <rect x="0" y="0" width="170" height="42" rx="8" fill="#176b5b"/>
      <text x="20" y="28" fill="#ffffff">Low false positives</text>
      <rect x="190" y="0" width="180" height="42" rx="8" fill="#334155"/>
      <text x="210" y="28" fill="#ffffff">Role mapping</text>
      <rect x="390" y="0" width="190" height="42" rx="8" fill="#7a4b19"/>
      <text x="410" y="28" fill="#ffffff">Evidence gates</text>
      <rect x="600" y="0" width="150" height="42" rx="8" fill="#1f4f73"/>
      <text x="620" y="28" fill="#ffffff">MIT licensed</text>
    </g>
  </g>
  <path d="M320 300 H1120" stroke="url(#line)" stroke-width="4" stroke-linecap="round"/>
</svg>
